<svg width="20" height="20" viewBox="0 0 20 20" fill="none" xmlns="http://www.w3.org/2000/svg">
<g clip-path="url(#clip0_33_223)">
<path d="M10 19.9991C10.663 19.9991 11.2989 19.7357 11.7678 19.2669C12.2366 18.7981 12.5 18.1622 12.5 17.4991H7.5C7.5 18.1622 7.76339 18.7981 8.23223 19.2669C8.70107 19.7357 9.33696 19.9991 10 19.9991ZM10 2.39664L9.00375 2.59789C7.8737 2.82814 6.85791 3.44177 6.12831 4.33492C5.39872 5.22807 5.00012 6.34587 5 7.49914C5 8.28414 4.8325 10.2454 4.42625 12.1766C4.22625 13.1354 3.95625 14.1341 3.5975 14.9991H16.4025C16.0437 14.1341 15.775 13.1366 15.5737 12.1766C15.1675 10.2454 15 8.28414 15 7.49914C14.9996 6.34609 14.6009 5.22858 13.8713 4.33568C13.1417 3.44279 12.1261 2.82935 10.9963 2.59914L10 2.39664ZM17.775 14.9991C18.0538 15.5579 18.3762 16.0004 18.75 16.2491H1.25C1.62375 16.0004 1.94625 15.5579 2.225 14.9991C3.35 12.7491 3.75 8.59914 3.75 7.49914C3.75 4.47414 5.9 1.94914 8.75625 1.37289C8.7388 1.19908 8.75798 1.02355 8.81254 0.857607C8.8671 0.691666 8.95584 0.539003 9.07303 0.409463C9.19022 0.279924 9.33325 0.176384 9.49292 0.105521C9.65258 0.0346587 9.82532 -0.00195312 10 -0.00195312C10.1747 -0.00195313 10.3474 0.0346587 10.5071 0.105521C10.6667 0.176384 10.8098 0.279924 10.927 0.409463C11.0442 0.539003 11.1329 0.691666 11.1875 0.857607C11.242 1.02355 11.2612 1.19908 11.2437 1.37289C12.6566 1.66027 13.9267 2.42709 14.839 3.54352C15.7514 4.65994 16.2498 6.05736 16.25 7.49914C16.25 8.59914 16.65 12.7491 17.775 14.9991Z" fill="#ADB4BD"/>
</g>
<defs>
<clipPath id="clip0_33_223">
<rect width="20" height="20" fill="white"/>
</clipPath>
</defs>
</svg>
