<svg width="72" height="72" viewBox="0 0 72 72" fill="none" xmlns="http://www.w3.org/2000/svg">
<rect width="72" height="72" rx="36" fill="white" fill-opacity="0.06"/>
<path d="M50 44C50 44.5304 49.7893 45.0391 49.4142 45.4142C49.0391 45.7893 48.5304 46 48 46H24C23.4696 46 22.9609 45.7893 22.5858 45.4142C22.2107 45.0391 22 44.5304 22 44V32C22 31.4696 22.2107 30.9609 22.5858 30.5858C22.9609 30.2107 23.4696 30 24 30H26.344C27.9345 29.9991 29.4595 29.3668 30.584 28.242L32.244 26.586C32.618 26.2119 33.125 26.0012 33.654 26H38.342C38.8724 26.0001 39.381 26.2109 39.756 26.586L41.412 28.242C41.9693 28.7994 42.6309 29.2416 43.3591 29.5432C44.0873 29.8449 44.8678 30.0001 45.656 30H48C48.5304 30 49.0391 30.2107 49.4142 30.5858C49.7893 30.9609 50 31.4696 50 32V44ZM24 28C22.9391 28 21.9217 28.4214 21.1716 29.1716C20.4214 29.9217 20 30.9391 20 32V44C20 45.0609 20.4214 46.0783 21.1716 46.8284C21.9217 47.5786 22.9391 48 24 48H48C49.0609 48 50.0783 47.5786 50.8284 46.8284C51.5786 46.0783 52 45.0609 52 44V32C52 30.9391 51.5786 29.9217 50.8284 29.1716C50.0783 28.4214 49.0609 28 48 28H45.656C44.5952 27.9998 43.578 27.5782 42.828 26.828L41.172 25.172C40.422 24.4218 39.4048 24.0002 38.344 24H33.656C32.5952 24.0002 31.578 24.4218 30.828 25.172L29.172 26.828C28.422 27.5782 27.4048 27.9998 26.344 28H24Z" fill="#F8F9FA"/>
<path d="M36 42C34.6739 42 33.4021 41.4732 32.4645 40.5355C31.5268 39.5979 31 38.3261 31 37C31 35.6739 31.5268 34.4021 32.4645 33.4645C33.4021 32.5268 34.6739 32 36 32C37.3261 32 38.5979 32.5268 39.5355 33.4645C40.4732 34.4021 41 35.6739 41 37C41 38.3261 40.4732 39.5979 39.5355 40.5355C38.5979 41.4732 37.3261 42 36 42ZM36 44C37.8565 44 39.637 43.2625 40.9497 41.9497C42.2625 40.637 43 38.8565 43 37C43 35.1435 42.2625 33.363 40.9497 32.0503C39.637 30.7375 37.8565 30 36 30C34.1435 30 32.363 30.7375 31.0503 32.0503C29.7375 33.363 29 35.1435 29 37C29 38.8565 29.7375 40.637 31.0503 41.9497C32.363 43.2625 34.1435 44 36 44ZM26 33C26 33.2652 25.8946 33.5196 25.7071 33.7071C25.5196 33.8946 25.2652 34 25 34C24.7348 34 24.4804 33.8946 24.2929 33.7071C24.1054 33.5196 24 33.2652 24 33C24 32.7348 24.1054 32.4804 24.2929 32.2929C24.4804 32.1054 24.7348 32 25 32C25.2652 32 25.5196 32.1054 25.7071 32.2929C25.8946 32.4804 26 32.7348 26 33Z" fill="#F8F9FA"/>
</svg>
