<svg width="20" height="20" viewBox="0 0 20 20" fill="none" xmlns="http://www.w3.org/2000/svg">
<path d="M10.0002 4.48085L9.1039 3.54732C7.00008 1.35599 3.14246 2.11219 1.74992 4.86718C1.09615 6.16298 0.948648 8.03384 2.14243 10.4215C3.29247 12.7205 5.68504 15.4742 10.0002 18.4737C14.3153 15.4742 16.7066 12.7205 17.8579 10.4215C19.0517 8.03257 18.9054 6.16298 18.2504 4.86718C16.8579 2.11219 13.0003 1.35473 10.8965 3.54605L10.0002 4.48085ZM10.0002 20C-9.16666 7.16618 4.09874 -2.85059 9.78017 2.44786C9.85517 2.51752 9.92892 2.58972 10.0002 2.66446C10.0707 2.58979 10.1441 2.51796 10.2202 2.44912C15.9004 -2.85313 29.167 7.16491 10.0002 20Z" fill="#ADB4BD"/>
</svg>
