<svg width="17" height="16" viewBox="0 0 17 16" fill="none" xmlns="http://www.w3.org/2000/svg">
<path fill-rule="evenodd" clip-rule="evenodd" d="M4.5 2.375C4.5 2.20924 4.56585 2.05027 4.68306 1.93306C4.80027 1.81585 4.95924 1.75 5.125 1.75H15.125C15.2908 1.75 15.4497 1.81585 15.5669 1.93306C15.6842 2.05027 15.75 2.20924 15.75 2.375V13.625C15.75 13.7908 15.6842 13.9497 15.5669 14.0669C15.4497 14.1842 15.2908 14.25 15.125 14.25H5.125C4.95924 14.25 4.80027 14.1842 4.68306 14.0669C4.56585 13.9497 4.5 13.7908 4.5 13.625V11.125C4.5 10.9592 4.43415 10.8003 4.31694 10.6831C4.19973 10.5658 4.04076 10.5 3.875 10.5C3.70924 10.5 3.55027 10.5658 3.43306 10.6831C3.31585 10.8003 3.25 10.9592 3.25 11.125V13.625C3.25 14.1223 3.44754 14.5992 3.79917 14.9508C4.1508 15.3025 4.62772 15.5 5.125 15.5H15.125C15.6223 15.5 16.0992 15.3025 16.4508 14.9508C16.8025 14.5992 17 14.1223 17 13.625V2.375C17 1.87772 16.8025 1.40081 16.4508 1.04917C16.0992 0.697544 15.6223 0.5 15.125 0.5H5.125C4.62772 0.5 4.1508 0.697544 3.79917 1.04917C3.44754 1.40081 3.25 1.87772 3.25 2.375V4.875C3.25 5.04076 3.31585 5.19973 3.43306 5.31694C3.55027 5.43415 3.70924 5.5 3.875 5.5C4.04076 5.5 4.19973 5.43415 4.31694 5.31694C4.43415 5.19973 4.5 5.04076 4.5 4.875V2.375Z" fill="#F8F9FA"/>
<path fill-rule="evenodd" clip-rule="evenodd" d="M11.8175 8.4425C11.8757 8.38444 11.9219 8.31547 11.9534 8.23954C11.9849 8.16361 12.0011 8.08221 12.0011 8C12.0011 7.91779 11.9849 7.83639 11.9534 7.76046C11.9219 7.68453 11.8757 7.61556 11.8175 7.5575L8.0675 3.8075C8.00939 3.74939 7.9404 3.70329 7.86448 3.67185C7.78855 3.6404 7.70718 3.62421 7.625 3.62421C7.54282 3.62421 7.46145 3.6404 7.38552 3.67185C7.3096 3.70329 7.24061 3.74939 7.1825 3.8075C7.12439 3.86561 7.07829 3.9346 7.04685 4.01052C7.0154 4.08644 6.99921 4.16782 6.99921 4.25C6.99921 4.33218 7.0154 4.41356 7.04685 4.48948C7.07829 4.5654 7.12439 4.63439 7.1825 4.6925L9.86625 7.375H0.875C0.70924 7.375 0.550268 7.44085 0.433058 7.55806C0.315848 7.67527 0.25 7.83424 0.25 8C0.25 8.16576 0.315848 8.32473 0.433058 8.44194C0.550268 8.55915 0.70924 8.625 0.875 8.625H9.86625L7.1825 11.3075C7.12439 11.3656 7.07829 11.4346 7.04685 11.5105C7.0154 11.5864 6.99921 11.6678 6.99921 11.75C6.99921 11.8322 7.0154 11.9136 7.04685 11.9895C7.07829 12.0654 7.12439 12.1344 7.1825 12.1925C7.24061 12.2506 7.3096 12.2967 7.38552 12.3282C7.46145 12.3596 7.54282 12.3758 7.625 12.3758C7.70718 12.3758 7.78855 12.3596 7.86448 12.3282C7.9404 12.2967 8.00939 12.2506 8.0675 12.1925L11.8175 8.4425Z" fill="#F8F9FA"/>
</svg>
