<svg width="20" height="20" viewBox="0 0 20 20" fill="none" xmlns="http://www.w3.org/2000/svg">
<g clip-path="url(#clip0_105_405)">
<path d="M4.56809 1.65988C4.4943 1.56496 4.40115 1.48682 4.29484 1.43066C4.18853 1.3745 4.07149 1.34161 3.95149 1.33416C3.83149 1.32671 3.71127 1.34488 3.59883 1.38746C3.48639 1.43004 3.3843 1.49606 3.29934 1.58113L2.00684 2.87488C1.40309 3.47988 1.18059 4.33613 1.44434 5.08738C2.53901 8.19687 4.31971 11.02 6.65434 13.3474C8.98175 15.682 11.8049 17.4627 14.9143 18.5574C15.6656 18.8211 16.5218 18.5986 17.1268 17.9949L18.4193 16.7024C18.5044 16.6174 18.5704 16.5153 18.613 16.4029C18.6556 16.2904 18.6738 16.1702 18.6663 16.0502C18.6589 15.9302 18.626 15.8132 18.5698 15.7069C18.5136 15.6006 18.4355 15.5074 18.3406 15.4336L15.4568 13.1911C15.3554 13.1125 15.2375 13.0579 15.1119 13.0315C14.9863 13.005 14.8563 13.0075 14.7318 13.0386L11.9943 13.7224C11.6289 13.8137 11.2461 13.8089 10.8831 13.7083C10.5202 13.6078 10.1894 13.415 9.92309 13.1486L6.85309 10.0774C6.58655 9.81118 6.3935 9.48048 6.29273 9.1175C6.19196 8.75453 6.18692 8.37164 6.27809 8.00613L6.96309 5.26863C6.99422 5.14413 6.99667 5.01417 6.97026 4.88858C6.94384 4.76299 6.88924 4.64504 6.81059 4.54363L4.56809 1.65988ZM2.35559 0.63863C2.57433 0.419817 2.83712 0.250043 3.12651 0.140582C3.4159 0.0311206 3.72527 -0.0155236 4.03407 0.00374676C4.34286 0.0230171 4.64403 0.107761 4.91757 0.252351C5.1911 0.396942 5.43075 0.59807 5.62059 0.84238L7.86309 3.72488C8.27434 4.25363 8.41934 4.94238 8.25684 5.59238L7.57309 8.32988C7.53774 8.47167 7.53965 8.62019 7.57863 8.76102C7.61762 8.90185 7.69236 9.03021 7.79559 9.13363L10.8668 12.2049C10.9704 12.3083 11.099 12.3832 11.24 12.4222C11.3811 12.4612 11.5299 12.463 11.6718 12.4274L14.4081 11.7436C14.7289 11.6634 15.0637 11.6572 15.3872 11.7254C15.7107 11.7936 16.0145 11.9345 16.2756 12.1374L19.1581 14.3799C20.1943 15.1861 20.2893 16.7174 19.3618 17.6436L18.0693 18.9361C17.1443 19.8611 15.7618 20.2674 14.4731 19.8136C11.1746 18.653 8.17968 16.7647 5.71059 14.2886C3.2347 11.8199 1.34635 8.82545 0.185589 5.52738C-0.266911 4.23988 0.139339 2.85613 1.06434 1.93113L2.35684 0.63863H2.35559Z" fill="#142D3B"/>
</g>
<defs>
<clipPath id="clip0_105_405">
<rect width="20" height="20" fill="white"/>
</clipPath>
</defs>
</svg>
